<svg xmlns="http://www.w3.org/2000/svg" width="800" height="450" viewBox="0 0 800 450">
  <rect width="800" height="450" fill="#0f172a"/>
  <rect x="60" y="40" width="120" height="12" rx="6" fill="#1e293b"/>
  <rect x="60" y="64" width="80" height="8" rx="4" fill="#1e293b"/>
  <rect x="60" y="110" width="680" height="220" rx="12" fill="#1e293b"/>
  <rect x="80" y="130" width="200" height="12" rx="6" fill="#064e3b"/>
  <rect x="80" y="154" width="300" height="8" rx="4" fill="#1e2d3d"/>
  <rect x="80" y="174" width="260" height="8" rx="4" fill="#1e2d3d"/>
  <rect x="80" y="194" width="220" height="8" rx="4" fill="#1e2d3d"/>
  <rect x="80" y="240" width="80" height="32" rx="8" fill="#059669"/>
  <rect x="172" y="240" width="80" height="32" rx="8" fill="#1e293b"/>
  <circle cx="600" cy="220" r="60" fill="#064e3b"/>
  <rect x="60" y="360" width="100" height="24" rx="6" fill="#1e293b"/>
  <rect x="172" y="360" width="80" height="24" rx="6" fill="#1e293b"/>
  <rect x="264" y="360" width="90" height="24" rx="6" fill="#1e293b"/>
</svg>
